<?xml version="1.0" standalone="no"?>
<!DOCTYPE svg PUBLIC "-//W3C//DTD SVG 20010904//EN"
 "http://www.w3.org/TR/2001/REC-SVG-20010904/DTD/svg10.dtd">
<svg version="1.0" xmlns="http://www.w3.org/2000/svg"
 width="1536.000000pt" height="1024.000000pt" viewBox="0 0 1536.000000 1024.000000"
 preserveAspectRatio="xMidYMid meet">

<g transform="translate(0.000000,1024.000000) scale(0.100000,-0.100000)"
fill="#00446e" stroke="none">
<path d="M3625 8030 c-153 -28 -260 -110 -302 -232 -8 -23 -19 -78 -24 -123
-15 -133 -21 -122 74 -131 l82 -8 -100 -10 c-62 -7 -111 -18 -126 -28 -30 -19
-57 -71 -67 -129 l-7 -40 -105 -4 c-58 -2 -132 -11 -165 -20 -33 -9 -105 -21
-160 -25 -139 -12 -252 -50 -340 -114 -16 -12 -55 -28 -86 -35 -62 -13 -161
-67 -196 -106 -22 -25 -22 -62 0 -48 6 4 1 -8 -12 -26 -27 -38 -51 -111 -51
-156 0 -44 -30 -78 -100 -116 -61 -32 -140 -98 -140 -116 0 -5 21 0 48 13 26
12 65 25 87 28 39 5 39 5 -11 -13 -70 -26 -88 -36 -166 -94 -52 -38 -71 -59
-84 -92 -9 -24 -31 -60 -50 -80 -29 -32 -129 -206 -148 -259 -6 -18 -5 -18 16
-2 29 21 135 72 168 81 24 6 24 5 -5 -17 -68 -51 -158 -146 -200 -209 -56 -85
-101 -176 -92 -186 4 -3 22 1 41 9 l34 17 -34 -56 c-49 -82 -58 -116 -41 -150
26 -50 48 -62 128 -69 58 -5 91 -15 154 -47 44 -22 102 -48 128 -57 39 -14 44
-18 28 -23 -12 -3 -21 -2 -21 3 0 4 -17 6 -37 4 -53 -5 -134 20 -229 72 -45
24 -85 44 -89 44 -19 0 35 -45 95 -79 94 -54 170 -82 259 -95 71 -10 119 -26
79 -26 -9 0 -85 -32 -169 -70 -245 -112 -336 -173 -375 -254 l-25 -51 63 61
c35 34 78 71 96 83 18 13 -10 -19 -61 -71 -52 -51 -110 -118 -130 -147 -31
-47 -35 -57 -23 -70 8 -10 16 -56 20 -115 16 -217 122 -404 371 -650 125 -125
211 -185 340 -240 50 -22 124 -54 165 -72 87 -38 319 -127 370 -142 19 -6 91
-29 160 -51 431 -139 1045 -260 1710 -336 422 -48 812 -74 865 -57 l30 10 -32
12 c-18 7 -33 16 -33 21 0 5 -8 9 -19 9 -10 0 -24 7 -31 15 -7 8 -8 15 -4 15
19 0 35 40 24 60 -7 13 -7 20 -1 20 6 0 8 7 5 15 -5 11 8 15 63 18 46 2 32 4
-47 5 -216 4 -821 43 -1045 68 -519 58 -958 140 -1339 251 -337 97 -527 168
-760 285 -264 133 -503 326 -593 479 -30 52 -53 112 -38 97 5 -4 14 -3 22 3 7
6 13 9 13 7 0 -3 18 12 40 33 87 82 157 117 203 100 20 -8 25 -18 30 -68 3
-32 26 -122 51 -198 43 -134 45 -143 36 -210 -6 -51 -5 -72 3 -78 52 -36 347
-168 497 -222 102 -36 196 -71 209 -76 l24 -10 -6 98 c-22 320 -21 358 2 405
31 64 54 83 100 79 21 -1 54 4 74 12 19 9 66 18 103 22 37 3 76 10 85 15 44
24 220 -66 334 -171 184 -168 399 -470 412 -577 l5 -48 127 -17 c162 -22 342
-40 345 -35 5 6 -23 161 -38 206 -7 23 -13 42 -12 42 1 0 17 -5 36 -10 71 -21
178 -29 261 -20 86 10 209 45 209 60 0 15 -53 133 -92 204 -21 38 -38 69 -38
70 0 1 25 3 275 16 121 6 257 13 303 16 l82 6 1 46 c0 43 15 139 18 118 0 -5
7 -3 15 3 31 26 176 108 219 125 52 19 82 52 92 96 4 16 15 32 26 35 36 12 70
78 76 147 4 44 13 72 29 93 33 44 45 82 46 145 1 64 -18 108 -69 161 l-35 36
41 114 c22 63 67 193 99 290 66 193 86 239 105 239 7 0 40 10 73 23 l59 23 55
-22 c47 -20 73 -23 180 -24 l125 0 105 50 105 51 28 -33 c15 -18 27 -38 27
-44 0 -21 40 -24 300 -24 238 0 257 1 288 20 18 11 55 32 83 46 37 20 49 32
49 49 0 12 3 37 6 54 6 28 10 31 45 31 48 0 111 -45 154 -110 23 -34 47 -54
99 -80 67 -34 72 -35 186 -35 l116 0 140 70 c76 39 142 71 146 73 5 2 12 -8
18 -22 5 -14 14 -26 19 -26 5 0 11 -19 13 -42 l3 -43 127 -3 c111 -2 133 0
166 17 40 20 96 17 126 -8 11 -9 361 -13 866 -9 36 0 124 -3 196 -7 110 -6
135 -5 162 9 42 22 118 21 126 -1 6 -14 26 -16 201 -10 145 4 195 3 198 -6 3
-9 129 -12 519 -12 l516 1 49 23 c44 20 54 21 91 11 23 -6 42 -14 42 -19 0 -4
56 -11 125 -14 108 -6 133 -4 190 14 69 21 125 19 146 -7 10 -12 66 -15 308
-16 163 -1 355 0 426 1 72 1 155 2 185 3 30 0 190 -1 355 -3 333 -3 346 -2
450 66 28 17 71 44 97 58 181 103 211 337 57 441 -30 20 -60 36 -68 36 -25 0
0 16 79 50 41 18 76 34 78 35 2 2 13 48 26 104 l23 101 -66 21 c-147 47 -252
36 -439 -48 l-103 -46 -32 31 c-56 53 -110 64 -324 70 -165 4 -194 2 -214 -12
-29 -20 -39 -20 -39 -1 0 13 -20 15 -120 15 l-120 0 -85 -46 c-62 -33 -86 -42
-90 -32 -2 7 -8 29 -13 48 l-8 35 -135 -4 -134 -3 -85 -45 -85 -45 -52 35
c-69 47 -127 58 -321 64 -146 5 -164 4 -182 -12 -18 -16 -20 -17 -20 -2 0 15
-24 17 -244 17 l-245 0 -61 -36 -61 -35 -35 21 c-64 40 -127 50 -326 50 -128
0 -189 -4 -194 -11 -4 -6 -58 -36 -122 -67 -108 -52 -115 -54 -125 -36 -22 40
-76 80 -133 99 -47 15 -95 20 -242 23 -164 4 -185 2 -203 -14 -17 -16 -19 -16
-19 -1 0 15 -19 17 -172 17 -95 0 -394 3 -664 6 l-491 6 -62 -36 c-34 -20 -64
-36 -67 -36 -2 0 -4 15 -4 34 l0 34 -117 -2 c-113 -3 -120 -4 -168 -34 l-51
-31 -50 25 c-68 34 -143 44 -320 44 -126 0 -153 -3 -158 -15 -7 -19 -26 -19
-26 0 0 13 -23 15 -149 15 -98 0 -152 -4 -157 -11 -8 -13 -139 -99 -151 -99
-4 0 -15 24 -23 53 l-15 52 -65 6 c-103 10 -238 10 -242 0 -1 -6 -23 -23 -48
-40 -44 -29 -45 -30 -65 -12 -107 98 -358 96 -489 -4 -42 -32 -48 -31 -35 2
13 34 7 39 -66 57 -133 35 -301 7 -384 -64 -20 -16 -67 -49 -106 -72 -38 -23
-80 -52 -93 -65 l-23 -24 -37 30 c-74 58 -139 138 -193 235 -46 85 -69 114
-164 203 -60 58 -119 121 -131 142 l-21 37 46 -7 c136 -23 228 5 245 74 7 28
6 45 -6 70 -21 45 -100 129 -169 183 l-59 45 0 99 c0 137 -22 195 -104 275
-78 76 -174 126 -321 167 -80 22 -300 32 -380 18z m135 -45 c0 -2 -13 -11 -30
-20 -42 -22 -76 -88 -99 -190 -44 -202 -40 -188 -34 -120 13 170 59 295 116
320 34 15 47 18 47 10z m281 -15 c30 -5 90 -28 134 -49 144 -71 205 -143 224
-261 10 -61 15 -170 8 -170 -2 0 -30 11 -63 24 -83 34 -193 55 -329 62 -64 4
-111 11 -104 15 9 5 8 11 -5 24 -23 23 -40 68 -56 145 -7 36 -21 83 -31 104
-24 50 -24 92 -1 105 22 13 154 14 223 1z m235 -473 c108 -33 168 -65 242
-128 108 -91 147 -173 102 -214 -20 -18 -20 -17 -20 10 0 66 -69 132 -172 163
-56 18 -92 21 -220 20 -157 -1 -177 3 -248 46 -59 37 -149 73 -158 64 -10 -10
-28 7 -34 32 -5 22 133 39 292 35 110 -2 150 -7 216 -28z m-947 -51 c10 -12 8
-13 -8 -9 -14 3 -23 0 -27 -11 -3 -9 -12 -16 -19 -16 -6 0 -20 -9 -29 -19 -15
-17 -17 -33 -13 -103 3 -46 9 -92 13 -103 13 -35 69 -66 69 -38 0 6 3 15 7 18
4 4 5 26 2 49 -5 35 -2 44 20 65 30 28 38 23 56 -34 16 -53 61 -136 70 -130 4
2 10 30 14 62 8 64 33 113 71 133 26 14 60 5 60 -16 0 -5 4 -15 8 -21 6 -9 2
-13 -11 -13 -22 0 -49 -27 -38 -38 4 -4 28 -18 54 -32 32 -17 48 -33 50 -48 2
-13 23 -44 47 -69 l44 -46 74 6 c52 5 77 3 87 -6 10 -9 11 -9 6 0 -4 8 6 18
29 27 19 8 35 21 35 29 0 8 -23 31 -52 51 l-52 36 79 0 c44 0 121 7 170 15
100 16 154 19 172 7 7 -5 9 -19 4 -42 l-7 -35 -94 -17 c-77 -14 -99 -22 -117
-43 -27 -31 -33 -86 -8 -65 12 10 21 10 41 1 32 -14 77 -14 92 1 19 19 14 30
-7 18 -20 -10 -51 -4 -51 10 0 4 12 10 28 13 15 3 38 9 51 13 21 6 23 5 17
-12 -4 -10 -12 -48 -18 -84 -14 -88 -26 -109 -127 -220 -48 -52 -113 -125
-145 -162 -70 -79 -97 -93 -172 -84 -85 10 -133 39 -241 144 -171 166 -223
260 -223 399 l0 63 -32 0 c-39 0 -47 5 -76 46 -65 93 -62 274 5 313 26 15 79
13 92 -3z m469 -325 c33 -30 29 -48 -7 -36 -18 5 -48 65 -33 65 4 0 22 -13 40
-29z m-727 -231 c23 -102 33 -324 22 -465 -13 -159 -29 -119 -25 63 4 165 -15
367 -43 459 -8 26 -15 64 -14 83 l0 35 21 -45 c11 -25 28 -83 39 -130z m-467
131 c38 -24 126 -124 145 -166 69 -157 80 -302 31 -437 -32 -87 -64 -148 -78
-148 -5 0 -16 36 -25 80 -17 90 -42 148 -86 201 -32 39 -108 95 -117 86 -3 -3
19 -38 49 -77 30 -39 62 -95 71 -123 34 -105 31 -250 -7 -341 -12 -28 -13 -28
-45 56 -29 78 -68 145 -78 135 -2 -2 7 -34 21 -71 23 -62 36 -192 19 -208 -3
-3 -28 18 -56 48 -74 78 -147 132 -272 199 -124 67 -141 91 -63 88 34 -1 72
-13 128 -41 51 -25 79 -35 79 -27 0 27 -142 119 -222 144 -32 11 -36 15 -32
39 3 15 6 28 8 29 2 2 29 8 60 14 41 7 89 7 163 0 59 -6 108 -9 110 -8 2 2
-12 24 -31 49 -39 50 -109 99 -191 133 l-55 22 83 18 c123 27 138 38 153 113
14 70 44 119 81 133 33 12 82 -11 139 -68 24 -25 44 -43 44 -40 0 15 -33 79
-64 124 -19 28 -32 54 -29 57 11 11 35 6 67 -13z m1821 -268 c10 -174 -22
-429 -73 -571 -22 -62 -36 -70 -40 -25 -2 18 -19 57 -39 85 l-36 53 7 138 c6
120 10 147 34 203 19 46 35 68 55 77 15 6 27 15 27 19 0 5 7 8 15 8 12 0 15
20 16 113 l1 112 13 -52 c7 -29 16 -101 20 -160z m131 110 c55 -53 80 -88 115
-157 38 -77 57 -101 142 -182 55 -52 102 -94 106 -94 4 0 33 -29 64 -64 l56
-63 -37 13 c-76 27 -196 11 -311 -41 -66 -31 -82 -31 -108 -2 -28 33 -21 56
37 107 77 69 63 81 -35 29 -31 -16 -54 -25 -50 -19 4 6 1 17 -5 25 -8 9 -10
28 -6 47 l6 31 -21 -19 -22 -19 6 130 c5 104 3 150 -12 230 -10 55 -22 108
-26 119 -13 30 21 6 101 -71z m-1678 -38 c0 -16 -2 -15 -8 5 -4 14 -8 34 -8
45 0 16 2 15 8 -5 4 -14 8 -34 8 -45z m337 -72 c12 -70 36 -143 45 -138 5 3
37 -36 72 -87 79 -117 192 -232 253 -259 26 -11 49 -18 52 -16 3 3 -14 22 -37
43 -74 67 -72 69 43 69 100 0 104 1 195 44 100 48 165 106 216 194 15 26 32
47 38 47 6 0 9 -35 7 -92 -2 -51 0 -102 4 -113 4 -11 -1 -52 -11 -90 l-17 -70
-80 -57 c-44 -32 -122 -78 -172 -104 l-93 -46 -44 20 c-24 12 -57 24 -72 28
-65 16 -120 48 -232 135 -64 51 -127 108 -139 128 -30 49 -41 111 -47 274 -5
130 4 172 19 90z m-318 -90 c-3 -10 -5 -2 -5 17 0 19 2 27 5 18 2 -10 2 -26 0
-35z m2607 8 c21 -5 42 -13 46 -18 4 -4 -2 -46 -13 -91 -18 -78 -20 -83 -40
-77 -12 4 -47 9 -78 12 -71 7 -113 -13 -128 -59 -12 -40 -41 -256 -41 -313 l0
-40 -41 68 c-26 44 -61 84 -100 115 -54 43 -59 50 -59 87 0 105 46 208 114
260 72 55 230 81 340 56z m509 -5 c93 -34 146 -107 147 -204 0 -94 -30 -346
-48 -397 -23 -68 -102 -149 -162 -166 -25 -7 -92 -13 -150 -14 -95 0 -110 3
-163 28 -44 22 -63 39 -84 74 -25 43 -27 54 -25 147 3 138 36 358 63 413 24
50 74 87 152 114 63 22 214 25 270 5z m519 -106 c11 -52 27 -140 37 -195 13
-71 20 -94 26 -80 35 94 130 325 141 348 l15 28 126 -3 127 -3 -3 -65 c-2 -69
-7 -114 -42 -472 l-23 -228 -103 0 -104 0 6 43 c9 66 35 334 35 359 0 26 -42
-59 -114 -232 l-49 -115 -56 0 -56 0 -35 172 c-19 94 -37 174 -41 177 -3 3
-13 -74 -23 -172 -9 -97 -20 -189 -23 -204 l-5 -28 -99 0 c-73 0 -99 3 -99 13
0 6 7 75 15 152 8 77 21 217 30 310 9 94 21 198 27 233 l12 63 130 -3 129 -3
19 -95z m952 79 c22 -7 57 -29 77 -49 48 -45 63 -102 54 -194 -18 -188 -93
-263 -274 -274 -47 -3 -89 -9 -93 -15 -3 -6 -9 -57 -13 -114 l-7 -103 -32 -2
c-95 -5 -186 -2 -186 7 1 6 9 98 19 205 11 107 27 278 37 379 l18 183 180 -5
c113 -3 196 -10 220 -18z m414 6 c4 -4 -34 -384 -48 -485 -12 -88 1 -110 69
-110 79 0 78 -1 111 316 16 154 30 280 30 282 0 1 47 2 105 2 l105 0 0 -52 c0
-53 -45 -467 -56 -523 -18 -86 -91 -164 -175 -189 -67 -20 -196 -20 -264 0
-131 38 -163 118 -135 344 5 41 16 147 25 235 9 88 18 167 20 175 4 12 23 14
107 12 57 -2 104 -5 106 -7z m931 -53 c-4 -31 -8 -69 -8 -84 -1 -28 -1 -28
-75 -28 l-74 0 -6 -47 c-4 -27 -11 -102 -16 -168 -6 -66 -17 -174 -25 -240 -8
-66 -15 -125 -15 -132 0 -10 -26 -13 -106 -13 l-105 0 5 53 c6 48 29 291 45
470 l7 77 -78 0 -77 0 6 73 c3 39 9 79 13 87 7 13 44 15 262 12 l254 -3 -7
-57z m521 11 c0 -27 -3 -65 -6 -85 l-7 -38 -124 0 c-90 0 -125 -3 -127 -12 -3
-7 -7 -37 -10 -65 l-5 -53 115 0 115 0 -7 -72 c-3 -40 -9 -76 -13 -80 -3 -4
-56 -9 -116 -10 l-110 -3 -6 -65 c-3 -36 -4 -67 -2 -69 1 -2 60 -6 129 -9
l127 -5 -7 -76 c-4 -41 -10 -78 -12 -81 -6 -6 -69 -6 -312 -2 l-164 2 6 48 c3
26 10 94 16 152 40 393 50 499 50 533 l0 37 235 0 235 0 0 -47z m493 22 c100
-36 145 -112 132 -223 -10 -84 -45 -153 -94 -188 -22 -16 -41 -31 -41 -34 0
-3 29 -73 64 -155 l63 -150 -110 -3 c-61 -1 -114 1 -118 5 -21 21 -137 332
-133 354 4 21 3 21 -4 4 -5 -11 -17 -98 -27 -192 l-18 -173 -105 0 -105 0 7
68 c10 91 34 352 46 492 5 63 13 139 16 169 l7 53 186 -4 c144 -4 197 -9 234
-23z m4127 6 c65 -20 65 -20 42 -106 -12 -43 -23 -80 -26 -82 -2 -2 -21 0 -43
6 -21 6 -66 11 -100 11 -54 0 -64 -3 -82 -26 -31 -39 -15 -63 72 -109 91 -48
124 -77 148 -130 40 -86 15 -191 -66 -271 -67 -67 -129 -89 -246 -88 -82 1
-182 24 -194 45 -5 7 16 92 40 166 2 7 17 4 47 -10 50 -25 164 -35 197 -18 26
14 36 52 21 80 -6 12 -51 41 -99 66 -49 24 -100 58 -114 75 -35 41 -50 102
-44 177 8 109 76 189 185 220 53 15 205 11 262 -6z m-3306 -5 c61 -18 114 -60
132 -102 17 -41 18 -153 2 -207 -11 -38 -69 -107 -109 -132 -15 -9 -9 -27 47
-160 35 -82 64 -153 64 -157 0 -5 -51 -8 -114 -8 l-114 0 -10 28 c-99 251
-120 312 -116 329 3 12 1 23 -4 27 -5 3 -12 -25 -16 -67 -16 -177 -29 -286
-37 -298 -6 -10 -33 -13 -99 -12 -50 0 -94 4 -98 7 -9 10 42 602 63 734 l6 32
178 0 c125 0 192 -4 225 -14z m697 10 c3 -3 0 -44 -5 -91 l-9 -86 -122 5 -123
5 -6 -37 c-3 -20 -6 -49 -6 -64 l0 -28 111 0 111 0 -6 -67 c-12 -111 -2 -103
-127 -103 -97 0 -109 -2 -109 -17 0 -10 -3 -42 -6 -70 l-7 -53 131 0 132 0 -5
-27 c-2 -16 -7 -54 -10 -85 l-6 -58 -235 0 -234 0 0 23 c0 34 29 347 45 492 8
72 17 160 21 198 l6 67 227 0 c125 0 230 -2 232 -4z m378 -6 c61 -7 97 -17
135 -38 74 -42 90 -75 88 -186 -2 -214 -83 -304 -283 -314 l-86 -4 -7 -86 c-4
-48 -10 -99 -13 -114 l-5 -28 -105 0 -104 0 6 48 c3 26 14 151 25 277 26 296
40 416 51 437 8 15 25 18 112 18 56 0 140 -4 186 -10z m655 -38 c21 -121 106
-699 106 -723 0 -17 -8 -19 -104 -19 l-104 0 -8 77 -9 77 -84 0 -83 1 -28 -70
c-15 -38 -31 -70 -36 -71 -5 -1 -54 -4 -109 -7 l-101 -4 49 121 c26 67 68 175
93 240 39 105 120 305 158 391 l13 30 120 -3 121 -3 6 -37z m422 -69 c-4 -60
-16 -189 -26 -288 -11 -99 -22 -205 -25 -235 -3 -30 -8 -76 -11 -102 l-6 -48
-105 0 -106 0 7 58 c3 31 10 120 16 197 6 77 20 223 30 324 11 101 20 188 20
192 0 5 48 9 106 9 l107 0 -7 -107z m479 92 c129 -34 172 -93 163 -227 -6 -91
-41 -166 -93 -198 -19 -12 -35 -23 -35 -24 0 -2 29 -74 65 -161 36 -86 65
-158 65 -159 0 -6 -171 -5 -198 2 -27 6 -37 15 -52 52 -10 25 -41 99 -69 164
-57 134 -64 180 -28 190 12 3 32 6 45 6 13 0 37 13 53 29 25 25 29 37 29 84 0
71 -19 89 -86 85 l-49 -3 -17 -165 c-9 -91 -23 -226 -30 -300 l-13 -135 -102
-3 c-79 -2 -103 0 -103 10 0 77 56 725 66 756 5 19 312 17 389 -3z m-10049
-327 c52 -40 236 -236 230 -246 -6 -10 81 -52 149 -72 96 -28 107 -37 178
-144 47 -72 67 -112 67 -135 0 -21 -5 -31 -15 -31 -33 0 -92 33 -135 75 -29
28 -69 54 -109 70 -35 13 -88 38 -117 55 -65 36 -75 38 -45 6 13 -13 53 -38
89 -55 116 -55 137 -68 151 -96 12 -25 11 -33 -10 -76 -12 -27 -25 -49 -28
-49 -3 0 -69 33 -146 73 -77 41 -142 72 -144 70 -10 -7 53 -48 152 -98 118
-61 128 -76 86 -129 -30 -38 -65 -33 -180 25 -56 27 -103 48 -106 46 -9 -9 63
-56 117 -76 83 -32 100 -43 100 -62 0 -53 -115 -68 -229 -29 -49 16 -66 18
-83 9 -29 -16 -135 -6 -178 16 -37 18 -110 83 -110 98 0 4 15 -3 33 -16 17
-14 46 -31 62 -40 42 -21 149 -41 180 -33 l27 7 -41 44 c-23 25 -41 49 -41 55
0 7 -7 4 -16 -4 -8 -9 -24 -16 -35 -16 -24 0 -132 54 -178 89 l-34 26 5 -67 6
-67 -49 41 -50 42 -102 -13 c-373 -44 -467 -52 -617 -52 -145 -1 -172 2 -222
21 -67 25 -88 49 -88 101 0 54 81 169 146 208 19 11 19 11 0 26 -13 10 -44 15
-90 16 -39 1 -75 2 -81 4 -5 1 -40 3 -77 3 -39 1 -68 6 -68 12 0 16 83 49 189
76 66 17 137 26 240 31 122 6 139 8 106 16 -52 12 -304 14 -377 3 -66 -9 -77
3 -35 41 56 52 106 68 212 68 70 0 117 -5 155 -18 82 -28 194 -84 226 -116 16
-15 45 -33 64 -39 71 -23 298 -64 395 -71 111 -9 141 -2 360 79 115 43 237 73
264 66 63 -17 67 -17 36 0 -19 11 -49 17 -82 16 l-52 -1 -73 76 c-40 43 -85
90 -99 105 l-27 27 22 15 c32 23 87 20 122 -6z m1799 1 c22 -6 49 -18 59 -27
25 -22 138 -193 131 -200 -2 -3 -19 6 -37 20 -73 56 -119 73 -198 73 -67 0
-85 -5 -169 -43 -52 -23 -96 -40 -99 -37 -6 6 -6 100 0 125 7 29 21 42 65 62
78 34 180 46 248 27z m-789 -109 c21 0 24 -5 24 -34 0 -40 -11 -46 -81 -46
-54 0 -60 10 -39 66 9 23 14 26 41 20 18 -3 42 -6 55 -6z m1219 -196 l-7 -73
-36 -6 c-34 -5 -41 -2 -92 47 -46 44 -80 92 -80 114 0 2 17 2 38 -1 21 -4 66
2 107 12 83 21 81 24 70 -93z m-1175 42 c-24 -72 -59 -133 -78 -141 -9 -3 -65
-8 -126 -10 -115 -4 -112 -2 31 26 36 7 62 20 82 40 28 28 48 66 38 75 -2 2
-46 0 -98 -6 -112 -12 -208 -13 -275 -3 l-49 7 40 7 c22 5 76 8 120 8 113 1
242 19 290 40 22 10 41 17 43 16 1 -1 -7 -27 -18 -59z m925 -6 c70 -41 210
-179 243 -239 l23 -41 -28 -11 c-15 -6 -97 -31 -181 -55 l-153 -45 -62 48
c-85 64 -146 123 -163 155 -20 39 -18 117 6 155 32 54 82 74 175 71 72 -3 87
-7 140 -38z m-732 -125 c15 -10 48 -48 73 -86 61 -91 122 -146 171 -155 42 -7
61 -21 105 -77 l30 -37 -31 -11 c-32 -11 -53 -41 -65 -92 -5 -22 -11 -27 -24
-22 -34 14 -348 75 -382 74 -26 -1 -18 -5 35 -16 125 -27 221 -53 180 -48 -22
3 -58 7 -80 10 -26 3 -15 -2 30 -14 87 -24 65 -25 -90 -6 -65 8 -130 15 -143
15 -37 0 -17 -17 36 -30 26 -6 61 -20 78 -30 l29 -20 -35 0 c-19 0 -60 -7 -90
-16 -37 -11 -90 -15 -158 -14 l-102 1 23 -33 c12 -19 32 -46 44 -62 l22 -27
94 25 c109 30 118 31 111 12 -4 -9 7 -15 36 -19 63 -8 187 -71 195 -99 4 -12
13 -26 19 -30 6 -4 3 -10 -9 -14 -11 -4 -38 -15 -60 -24 -22 -9 -55 -23 -74
-30 -31 -12 -32 -14 -15 -27 17 -12 17 -13 -3 -13 -12 0 -25 4 -28 10 -3 6
-27 1 -58 -12 -29 -11 -144 -56 -257 -99 -113 -42 -225 -86 -249 -96 l-44 -19
53 -22 c31 -13 57 -19 64 -14 6 5 20 12 31 16 17 5 16 3 -4 -13 l-24 -19 31
-16 c47 -24 39 -28 -16 -8 -46 18 -49 18 -91 0 -32 -14 -42 -22 -37 -34 5 -13
3 -14 -7 -6 -14 12 -92 -9 -92 -24 0 -9 110 -44 139 -44 10 0 64 21 120 46
163 74 186 84 194 84 4 -1 -6 -8 -21 -16 l-29 -16 23 -24 c18 -20 19 -24 6
-24 -9 0 -27 5 -41 11 -15 7 -40 9 -63 4 l-38 -7 25 -20 25 -21 -25 8 c-14 4
-27 8 -30 9 -3 0 -30 -10 -60 -23 l-55 -24 40 -18 c56 -25 68 -23 155 16 43
19 84 35 92 35 8 0 18 4 24 9 5 5 38 20 74 34 94 36 102 38 95 27 -3 -6 -13
-10 -21 -10 -8 0 -29 -7 -47 -17 l-32 -16 30 -13 c38 -16 13 -18 -31 -2 -27 9
-37 9 -58 -5 -14 -10 -23 -23 -20 -30 4 -10 -3 -13 -25 -9 -25 3 -141 -39
-141 -52 0 -2 21 -11 47 -20 44 -15 49 -15 87 3 56 26 90 36 82 23 -3 -6 -23
-16 -44 -22 -20 -7 -41 -16 -46 -21 -13 -12 82 -52 121 -51 25 0 44 -10 79
-44 44 -41 46 -44 32 -65 -36 -55 -30 -56 -348 62 -162 60 -394 146 -515 190
-318 118 -449 170 -457 183 -4 6 -8 22 -8 36 0 21 8 27 53 42 28 9 156 53 282
98 127 45 332 117 457 160 l226 78 19 -22 c43 -49 57 -69 46 -62 -7 4 -13 5
-13 3 0 -9 110 -77 125 -77 8 0 15 7 15 15 0 8 -7 15 -15 15 -8 0 -42 37 -77
83 -34 45 -92 114 -128 152 -36 39 -75 83 -88 99 -19 25 -29 29 -67 28 -56 0
-64 11 -28 44 17 16 21 24 11 20 -12 -4 -34 14 -75 60 -32 36 -58 69 -58 72 0
4 7 17 16 30 15 20 22 22 54 16 41 -7 109 -71 142 -131 10 -18 21 -33 25 -33
22 0 95 131 158 283 19 47 42 84 56 94 34 22 40 10 15 -25 -11 -17 -53 -96
-92 -177 -50 -103 -83 -159 -111 -186 l-40 -39 24 -29 c12 -17 28 -30 34 -30
5 -1 35 22 66 49 48 42 63 50 100 52 l43 1 -37 4 c-37 4 -48 15 -28 28 6 4 24
34 41 68 18 34 65 116 105 184 41 67 74 124 74 126 0 3 7 21 16 42 l15 37 27
-24 c15 -14 39 -33 55 -43z m-639 -56 c25 -15 36 -28 36 -45 0 -33 -13 -30
-42 9 -49 64 -48 68 6 36z m1716 -59 l25 -7 -28 -12 c-40 -16 -55 -14 -67 8
-18 34 -15 35 70 11z m109 -151 c-28 -79 -86 -247 -130 -374 -109 -315 -125
-348 -182 -360 -74 -16 -159 -78 -207 -150 -20 -31 -73 -92 -117 -138 -79 -81
-83 -84 -321 -205 -133 -68 -248 -130 -256 -138 -13 -12 -18 -11 -41 9 l-27
23 116 329 c64 182 150 425 191 540 42 116 85 236 96 267 11 31 26 61 32 65
13 10 231 81 852 277 22 7 41 10 43 6 1 -4 -20 -72 -49 -151z m-2984 -190
c-44 -14 -252 -59 -267 -58 -21 1 245 67 272 67 23 0 23 0 -5 -9z m-667 -96
c-16 -2 -40 -2 -55 0 -16 2 -3 4 27 4 30 0 43 -2 28 -4z m-100 -121 c-29 -32
-70 -85 -89 -119 -37 -61 -89 -181 -89 -204 0 -7 -3 -10 -6 -6 -10 10 26 146
56 212 15 33 43 86 64 118 35 54 39 57 77 57 l41 0 -54 -58z m2539 52 c-3 -3
-12 -4 -19 -1 -8 3 -5 6 6 6 11 1 17 -2 13 -5z m-2058 -21 c17 -10 31 -21 31
-25 0 -3 -31 -27 -69 -52 -133 -89 -224 -214 -257 -352 -19 -82 -15 -277 9
-361 8 -29 12 -55 9 -58 -8 -8 -69 81 -104 150 -31 62 -55 95 -69 95 -21 0
-39 -35 -39 -76 0 -58 27 -179 51 -226 28 -56 23 -55 -26 4 -150 177 -173 420
-60 614 64 110 214 221 368 275 96 34 115 35 156 12z m2011 7 c-8 -5 -24 -9
-35 -9 l-20 0 20 9 c11 5 27 9 35 9 13 1 13 0 0 -9z m-1810 -170 c0 -13 7 -20
18 -20 46 0 55 -58 20 -136 -32 -74 -48 -145 -41 -186 8 -51 -8 -68 -63 -68
-38 0 -51 6 -90 42 -50 46 -84 103 -84 141 0 81 65 170 161 220 63 32 79 34
79 7z m2948 -22 c56 -83 62 -139 22 -218 -36 -70 -83 -96 -229 -126 -80 -17
-92 -13 -106 34 -10 34 46 81 139 115 l76 28 25 83 c14 45 25 92 25 104 0 33
16 27 48 -20z m-1412 -266 c-3 -5 8 -16 25 -26 59 -35 3 -40 -61 -6 -23 12
-23 13 -5 26 20 15 49 19 41 6z m177 -52 c3 -11 1 -18 -4 -14 -5 3 -9 12 -9
20 0 20 7 17 13 -6z m-1152 -115 c105 -42 219 -85 253 -96 34 -12 113 -40 176
-64 162 -62 365 -130 430 -144 95 -22 250 -79 250 -93 0 -4 8 -8 18 -8 16 -1
16 -1 0 -11 -14 -8 -18 -24 -18 -74 0 -36 -4 -65 -8 -65 -23 0 -145 47 -307
119 -158 70 -180 83 -180 103 0 18 6 24 28 26 35 4 104 -22 135 -51 l22 -21
-2 27 c-2 23 -11 30 -68 52 -36 14 -141 54 -235 91 -93 36 -262 101 -375 144
-250 96 -363 145 -368 160 -3 7 7 6 26 -4 17 -9 117 -50 223 -91z m1054 92
c-12 -9 -15 -19 -10 -28 7 -11 6 -11 -9 0 -17 14 -17 15 0 28 10 7 22 13 28
13 5 0 2 -6 -9 -13z m1305 -31 c0 -82 -49 -116 -187 -131 -53 -6 -64 -4 -69 9
-6 15 -7 15 -18 1 -8 -11 -23 -15 -46 -13 -30 2 -35 7 -38 30 -5 42 33 73 98
82 81 10 229 46 236 57 13 22 24 6 24 -35z m-1270 -16 c13 -8 13 -10 -2 -10
-9 0 -20 5 -23 10 -8 13 5 13 25 0z m90 -140 c13 -8 13 -10 -2 -10 -9 0 -20 5
-23 10 -8 13 5 13 25 0z m1046 -57 c-25 -21 -36 -23 -150 -23 -89 0 -127 4
-141 14 -16 11 -17 17 -7 29 9 11 37 15 115 15 56 1 125 5 152 9 60 10 73 -8
31 -44z"/>
<path d="M3784 7489 c-3 -6 -2 -15 3 -20 5 -5 9 -1 9 11 0 23 -2 24 -12 9z"/>
<path d="M3842 6858 c-7 -7 -12 -20 -12 -30 0 -27 78 -108 104 -108 33 0 95
25 114 45 16 17 16 17 -8 1 -34 -23 -41 -21 -115 26 -51 31 -65 46 -62 60 6
21 -4 23 -21 6z"/>
<path d="M3680 6763 c0 -17 73 -51 143 -67 78 -18 167 -21 167 -5 0 5 -4 8 -9
5 -19 -12 -197 32 -283 69 -10 4 -18 3 -18 -2z"/>
<path d="M3760 6660 c24 -44 97 -69 146 -49 29 12 29 12 -23 20 -29 4 -71 16
-93 28 -40 21 -41 21 -30 1z"/>
<path d="M5822 6500 c-34 -14 -47 -59 -67 -232 -21 -181 -17 -203 37 -213 18
-4 45 -2 60 4 49 18 58 46 75 235 15 168 15 177 -2 196 -19 21 -63 25 -103 10z"/>
<path d="M7271 6402 c-6 -49 -11 -94 -11 -100 0 -8 17 -12 45 -12 36 0 51 5
69 25 26 28 40 102 27 139 -11 28 -29 36 -81 36 l-37 0 -12 -88z"/>
<path d="M9627 6483 c-6 -10 -30 -204 -25 -208 10 -10 103 15 120 32 39 40 43
156 6 167 -32 10 -97 15 -101 9z"/>
<path d="M10456 6472 c-2 -4 -8 -51 -12 -105 l-7 -97 36 0 c79 0 114 33 124
117 8 68 -16 93 -86 93 -28 0 -52 -4 -55 -8z"/>
<path d="M11621 6370 c-7 -55 -9 -105 -6 -110 9 -15 52 -12 86 5 36 19 49 50
49 119 0 65 -19 86 -77 86 l-40 0 -12 -100z"/>
<path d="M12190 6273 c-18 -54 -35 -104 -37 -110 -4 -10 10 -13 47 -13 l53 0
-6 83 c-4 45 -7 94 -7 110 0 51 -18 27 -50 -70z"/>
<path d="M4335 5454 c50 -8 99 -12 110 -11 27 4 -128 27 -168 26 -18 -1 9 -8
58 -15z"/>
<path d="M3738 4737 c-16 -6 -28 -14 -28 -17 0 -4 18 -15 40 -25 35 -16 44
-16 76 -4 20 8 37 18 38 22 1 9 -70 37 -89 36 -5 -1 -22 -6 -37 -12z"/>
<path d="M3623 4692 c-24 -9 -43 -19 -43 -22 0 -3 22 -13 49 -23 47 -16 51
-16 92 2 l44 19 -48 21 c-27 11 -49 21 -50 20 -1 0 -21 -8 -44 -17z"/>
<path d="M8654 5405 c-34 -7 -77 -21 -95 -31 -37 -19 -38 -19 -186 -22 l-102
-2 19 -42 c23 -51 25 -96 6 -141 -14 -36 -69 -87 -92 -87 -20 0 -19 -4 32 -96
l45 -84 -93 0 -93 0 -40 75 c-39 73 -41 75 -77 75 -35 0 -38 -2 -38 -29 0 -15
-3 -49 -6 -75 l-7 -46 -83 0 c-76 0 -84 2 -84 19 0 11 11 115 25 231 14 116
25 221 25 233 -1 20 -2 21 -14 5 -10 -13 -31 -17 -99 -19 -48 -1 -87 -2 -87
-3 0 -1 11 -17 25 -36 20 -26 25 -46 25 -89 0 -78 -30 -134 -88 -169 -42 -24
-59 -27 -159 -31 l-113 -3 -1 -37 c-1 -20 -4 -49 -8 -66 l-6 -30 -80 4 c-44 1
-82 4 -84 6 -1 2 9 108 24 235 15 127 24 234 21 238 -6 6 -20 -9 -28 -30 -4
-8 -136 -11 -360 -9 -91 1 -183 -2 -205 -8 -21 -6 -52 -11 -70 -13 -30 -2 -32
-5 -41 -53 -16 -83 -73 -288 -89 -319 -23 -44 -22 -126 1 -160 l19 -29 381 6
c861 15 2019 19 2521 8 663 -14 1223 -30 1440 -41 190 -10 110 -9 -835 10
-556 11 -3026 12 -3150 1 -57 -5 -70 -9 -40 -10 25 -1 63 -5 85 -10 97 -22
4277 -35 4535 -15 133 11 154 21 193 92 48 88 87 295 87 458 l0 83 -87 -4
c-49 -3 -177 -9 -287 -15 -109 -6 -202 -13 -207 -16 -12 -7 -108 15 -129 30
-8 5 4 -10 26 -35 52 -55 68 -104 60 -178 -19 -160 -130 -245 -321 -245 -180
0 -275 80 -275 230 0 161 122 264 312 264 61 0 79 3 71 11 -19 19 -170 6 -227
-19 -27 -13 -52 -19 -55 -15 -3 5 -43 9 -87 11 l-81 2 -7 -31 c-3 -17 -6 -47
-6 -65 l0 -34 -79 0 -79 0 -11 -82 c-13 -95 -31 -249 -31 -260 0 -5 -38 -8
-85 -8 -100 0 -93 -15 -70 155 8 61 15 129 15 153 l0 42 -74 0 -75 0 6 38 c3
20 8 50 12 65 l6 28 232 -1 c149 0 234 3 238 10 4 7 -73 10 -239 10 -140 0
-247 -4 -251 -9 -3 -5 -27 -7 -53 -4 -26 3 -91 8 -144 10 -89 4 -98 3 -109
-15 -9 -14 -18 -18 -28 -13 -9 4 -38 9 -66 10 -27 1 -58 4 -67 7 -10 3 -18 1
-18 -4 0 -5 38 -61 84 -125 l83 -116 12 107 c18 154 9 142 102 142 69 0 79 -2
79 -17 0 -23 -49 -420 -56 -450 -4 -21 -10 -23 -74 -23 l-70 0 -86 118 c-48
64 -90 121 -94 125 -4 5 -13 -31 -19 -80 -7 -48 -14 -105 -17 -125 l-6 -38
-53 0 c-29 0 -66 3 -82 6 l-29 6 12 81 c7 45 20 149 29 232 9 82 19 153 22
157 2 5 38 8 79 8 48 0 73 4 69 10 -8 13 -131 13 -156 0 -10 -6 -19 -18 -19
-26 0 -13 -14 -14 -97 -10 -99 6 -127 10 -166 22 -12 3 1 -9 28 -27 84 -57
113 -152 81 -263 -46 -156 -230 -234 -419 -176 -75 23 -118 62 -143 126 -33
87 1 222 71 282 64 54 110 67 239 67 l119 0 -54 17 c-65 20 -76 20 -155 3z"/>
<path d="M7326 5234 c-11 -85 -12 -84 44 -84 83 0 132 38 115 88 -8 26 -47 42
-104 42 l-48 0 -7 -46z"/>
<path d="M7970 5268 c0 -9 -3 -36 -6 -62 l-7 -46 67 0 c53 0 70 4 86 20 40 40
15 90 -44 90 -19 0 -48 3 -65 6 -24 5 -31 3 -31 -8z"/>
<path d="M8674 5250 c-77 -31 -101 -180 -34 -215 93 -48 190 18 190 130 0 52
-44 95 -97 94 -21 0 -48 -4 -59 -9z"/>
<path d="M10634 5236 c-21 -10 -36 -27 -47 -55 -38 -93 -9 -159 74 -168 89
-10 139 41 139 141 0 47 -4 57 -26 75 -31 24 -93 27 -140 7z"/>
<path d="M1100 4797 c-75 -87 -139 -189 -173 -275 -15 -41 -26 -76 -24 -79 3
-2 8 4 11 15 5 15 19 21 61 27 32 4 55 11 55 18 0 7 4 6 10 -3 7 -11 10 -5 10
25 1 73 29 174 69 252 22 42 39 78 38 79 -2 2 -27 -25 -57 -59z"/>
<path d="M12420 4459 c-19 -12 -47 -32 -62 -46 -25 -24 -35 -26 -140 -29 -62
-2 -131 -7 -153 -12 -25 -5 12 -7 103 -4 78 3 142 2 142 -1 0 -3 -4 -17 -9
-30 -7 -18 -5 -31 6 -47 14 -20 13 -23 -5 -43 -78 -85 -244 -382 -312 -557
-18 -47 -36 -89 -40 -93 -4 -5 -34 -1 -66 9 -158 45 -243 122 -245 221 -1 64
-17 7 -18 -63 -1 -50 5 -73 29 -119 17 -31 30 -63 30 -70 0 -8 7 -21 16 -30
12 -11 13 -19 5 -28 -8 -10 1 -19 37 -36 70 -34 109 -40 186 -27 10 1 51 -6
90 -16 39 -11 81 -16 95 -13 81 21 -90 -53 -249 -106 -63 -22 -105 -37 -92
-35 12 2 22 0 22 -5 0 -5 -9 -9 -20 -9 -11 0 -20 -3 -20 -8 0 -4 -19 -7 -42
-6 -49 2 -150 -25 -142 -38 3 -4 -1 -5 -8 -3 -7 3 -52 -6 -98 -21 -47 -14
-161 -48 -255 -76 -93 -27 -219 -65 -280 -83 -160 -49 -780 -207 -995 -254
-491 -107 -593 -127 -1035 -201 -521 -86 -775 -119 -1345 -170 -374 -33 -880
-60 -785 -41 22 5 34 9 26 10 -8 0 -12 4 -9 7 4 3 2 18 -2 34 l-8 28 71 6 c40
3 140 10 222 16 83 6 195 15 250 20 55 5 136 12 180 15 44 3 92 8 106 11 l27
5 -18 47 c-21 56 -17 72 16 72 14 0 22 -4 19 -10 -3 -5 -1 -10 4 -10 6 0 23
-19 38 -42 15 -24 28 -45 29 -47 2 -2 31 1 66 5 61 8 62 8 23 14 -34 4 -43 11
-61 45 -33 64 -45 105 -31 106 20 2 42 -3 47 -10 3 -4 13 -10 23 -14 13 -5 16
-3 10 6 -11 18 -12 37 -2 37 5 0 3 12 -3 26 l-12 27 -106 -8 c-125 -9 -144
-10 -414 -20 -179 -7 -208 -6 -200 6 5 8 9 16 10 19 6 31 18 60 25 60 4 0 52
4 106 9 54 6 154 15 223 21 224 20 310 31 346 46 24 10 50 13 84 8 34 -5 50
-3 50 5 0 6 17 11 39 11 22 0 44 6 51 15 7 8 21 15 31 15 31 0 21 17 -13 24
-133 27 -158 28 -359 12 -683 -55 -1089 -71 -1774 -71 -630 0 -824 7 -1340 51
-491 41 -1008 118 -1450 216 -183 40 -555 147 -691 198 -59 22 -113 38 -118
36 -7 -3 -6 -5 1 -5 7 -1 10 -8 7 -16 -3 -8 0 -31 7 -52 13 -37 14 -44 17 -71
1 -8 7 -10 15 -6 6 4 9 4 5 -1 -4 -4 -3 -17 3 -28 9 -15 8 -18 -3 -11 -11 6
-11 5 1 -9 10 -13 11 -24 2 -48 -6 -17 -8 -35 -5 -40 4 -8 -35 -14 -59 -10 -5
1 -6 -2 -4 -6 3 -5 -6 -13 -19 -20 -18 -8 -22 -8 -17 0 7 12 -20 -6 -46 -32
-13 -12 -12 -13 8 -6 15 4 21 3 17 -3 -7 -12 183 -86 404 -159 435 -142 825
-237 1325 -322 239 -41 298 -50 395 -61 47 -5 183 -21 304 -35 120 -14 219
-25 221 -25 9 0 -2 -38 -14 -47 -13 -10 -9 -13 29 -14 39 -2 40 -3 12 -6 -38
-5 -320 20 -482 42 -58 8 -159 21 -225 30 -244 32 -401 61 -764 140 -253 55
-358 83 -683 184 -682 212 -1195 482 -1546 815 -132 125 -230 283 -279 446
-12 43 -22 64 -22 49 -1 -41 46 -193 80 -262 160 -319 462 -578 979 -841 368
-188 997 -401 1530 -519 621 -138 989 -189 1795 -249 226 -17 1308 -17 1580 0
1194 74 2122 205 3240 457 406 92 1103 289 1614 457 130 43 152 53 138 63 -9
7 -17 20 -17 29 0 9 -6 16 -12 16 -10 0 -9 3 1 9 11 7 11 9 0 14 -24 10 7 23
58 26 26 1 50 6 53 11 15 24 86 4 88 -25 2 -31 36 -25 193 35 241 91 256 97
379 130 308 84 605 255 765 440 78 92 83 118 8 42 -97 -97 -190 -168 -332
-252 -135 -80 -248 -128 -386 -166 -102 -27 -153 -31 -84 -6 61 23 129 64 159
98 24 27 24 27 -23 -5 -30 -20 -68 -36 -105 -41 -88 -15 -93 -11 -17 14 145
47 189 84 280 236 32 52 79 124 105 160 54 74 172 191 210 209 l25 12 -25 -18
c-54 -36 -168 -162 -222 -243 -59 -87 -60 -114 -5 -63 34 31 83 51 132 53 56
4 170 -2 157 -7 -6 -2 -9 -9 -6 -14 7 -13 42 9 118 75 108 93 139 173 111 291
-14 60 -63 167 -83 179 -4 2 -6 -15 -4 -37 4 -65 -21 -95 -129 -152 -52 -28
-117 -69 -146 -92 l-53 -43 -52 34 c-109 69 -327 162 -427 182 -40 8 -47 20
-27 43 23 25 20 67 -6 85 -30 21 -56 20 -98 -5z m40 -8 c0 -11 -110 -105 -116
-98 -8 7 47 68 81 88 35 22 35 22 35 10z m166 -156 c97 -31 307 -134 352 -172
l33 -28 -46 -55 c-25 -30 -78 -107 -118 -170 -113 -182 -187 -244 -342 -285
-86 -23 -299 -30 -424 -15 l-103 12 6 30 c16 82 134 321 239 488 87 137 114
170 143 170 29 0 75 22 94 45 17 21 53 16 166 -20z m-598 -755 c52 -8 142 -11
240 -9 86 3 146 3 132 1 -35 -5 -46 -18 -30 -37 11 -13 0 -15 -106 -15 -66 0
-150 5 -189 11 -88 12 -207 47 -200 58 6 11 43 9 153 -9z m449 4 c-3 -3 -12
-4 -19 -1 -8 3 -5 6 6 6 11 1 17 -2 13 -5z m-5465 -802 c-27 -4 -37 2 -27 17
4 8 13 7 28 -1 l22 -13 -23 -3z m-2037 -290 c6 -4 18 -22 27 -40 l17 -32 -44
0 c-39 0 -46 4 -60 30 -8 16 -15 34 -15 40 0 11 60 14 75 2z m230 -12 c13 0
28 -14 42 -40 l21 -40 -44 0 c-46 0 -63 15 -79 69 -7 21 -5 23 16 18 13 -4 33
-7 44 -7z m1202 -45 l22 -40 -47 -7 c-26 -3 -69 -7 -97 -7 -50 -1 -50 -1 -72
44 -22 45 -22 45 -1 45 13 0 18 -5 15 -14 -4 -9 6 -20 28 -30 18 -9 36 -22 38
-29 10 -23 7 21 -3 47 -8 23 -7 25 23 29 59 8 71 3 94 -38z m223 26 c5 -11 14
-31 20 -45 9 -26 9 -26 -39 -26 -31 0 -48 4 -48 13 0 6 -3 27 -7 45 -7 31 -7
32 28 32 25 0 38 -6 46 -19z m-541 -20 c12 -16 21 -34 21 -39 0 -6 15 -13 33
-15 17 -2 -13 -5 -69 -5 -99 -2 -101 -2 -113 24 -6 14 -9 29 -6 34 3 5 -3 11
-12 13 -13 3 -11 5 6 6 22 1 71 -42 71 -61 0 -5 7 -8 15 -8 18 0 18 8 0 40
-20 35 -19 40 9 40 16 0 32 -11 45 -29z m-1006 -28 c-7 -2 -19 -2 -25 0 -7 3
-2 5 12 5 14 0 19 -2 13 -5z m441 -10 c4 -10 -8 -13 -50 -13 -47 0 -53 2 -42
15 16 18 85 17 92 -2z"/>
<path d="M11998 4353 c7 -3 16 -2 19 1 4 3 -2 6 -13 5 -11 0 -14 -3 -6 -6z"/>
<path d="M873 4175 c0 -22 2 -30 4 -17 2 12 2 30 0 40 -3 9 -5 -1 -4 -23z"/>
</g>
</svg>

